<svg id="Layer_1" data-name="Layer 1" xmlns="http://www.w3.org/2000/svg" viewBox="0 0 100 95"><defs><style>.cls-1{fill:#231f20;}.cls-2{fill:#fff;stroke:#231f20;stroke-miterlimit:10;}</style></defs><title>logo</title><rect class="cls-1" x="11.23" y="7.89" width="80.8" height="78.86"/><path class="cls-2" d="M76.88,36.28s-6.57.19-6.5-.3a13.07,13.07,0,0,0,.16-1.88q0-8.91-10.66-8.91-8.41,0-8.41,6.14,0,2.75,3.36,5c1.51,1-3.78,12-6.58,8s-3.56-6.64-3-11.45c0.44-3.27,3.08-8.08,5.31-9.34a19.72,19.72,0,0,1,9.74-2.43Q76.88,21.11,76.88,36.28Z"/><path class="cls-2" d="M64.74,26l-25,42.62H62.87v5.29H23.12V68.59L47.77,26.47H26.66V21.18H62.43Z"/><path class="cls-2" d="M73.93,69.59a18.83,18.83,0,0,1-11.05,4.3V68.47c10-1,8.73-8.09,2.68-14.4A22.66,22.66,0,0,0,63,51.58a61.86,61.86,0,0,0-9.47-6.35l3.06-5.06S66.92,46.37,73.1,53c2.63,2.84,5.41,8.92,2.1,15.08A7.37,7.37,0,0,1,73.93,69.59Z"/></svg>